<svg width="320" height="300" viewBox="0 0 320 300" fill="none" xmlns="http://www.w3.org/2000/svg">
<g filter="url(#filter0_b_0_1)">
<path d="M0 20C0 8.9543 8.9543 0 20 0H300C311.046 0 320 8.95431 320 20V280C320 291.046 311.046 300 300 300H20C8.95431 300 0 291.046 0 280V20Z" fill="#EFDCDC" fill-opacity="0.51"/>
<path d="M0.5 20C0.5 9.23045 9.23045 0.5 20 0.5H300C310.77 0.5 319.5 9.23045 319.5 20V280C319.5 290.77 310.77 299.5 300 299.5H20C9.23045 299.5 0.5 290.77 0.5 280V20Z" stroke="#EDE4E4"/>
</g>
<rect opacity="0.6" x="67" y="150" width="186" height="6" rx="3" fill="#D9D9D9"/>
<rect x="157" y="243" width="186" height="6" rx="3" transform="rotate(-90 157 243)" fill="#D9D9D9"/>
<defs>
<filter id="filter0_b_0_1" x="-4" y="-4" width="328" height="308" filterUnits="userSpaceOnUse" color-interpolation-filters="sRGB">
<feFlood flood-opacity="0" result="BackgroundImageFix"/>
<feGaussianBlur in="BackgroundImageFix" stdDeviation="2"/>
<feComposite in2="SourceAlpha" operator="in" result="effect1_backgroundBlur_0_1"/>
<feBlend mode="normal" in="SourceGraphic" in2="effect1_backgroundBlur_0_1" result="shape"/>
</filter>
</defs>
</svg>
